<mxfile host="app.diagrams.net" agent="Mozilla/5.0 (X11; Ubuntu; Linux x86_64; rv:132.0) Gecko/20100101 Firefox/132.0" version="25.0.3">
  <diagram name="Page-1" id="v_6-nAWKOyNNtErz5vTg">
    <mxGraphModel grid="1" page="1" gridSize="10" guides="1" tooltips="1" connect="1" arrows="1" fold="1" pageScale="1" pageWidth="1169" pageHeight="827" math="0" shadow="0">
      <root>
        <mxCell id="0" />
        <mxCell id="1" parent="0" />
        <mxCell id="ta_ptb-M6hE-9gp1Du4E-44" value="" style="rounded=0;whiteSpace=wrap;html=1;fillColor=none;dashed=1;" vertex="1" parent="1">
          <mxGeometry x="1481.13" y="1129" width="802.25" height="350" as="geometry" />
        </mxCell>
        <mxCell id="ta_ptb-M6hE-9gp1Du4E-150" style="edgeStyle=orthogonalEdgeStyle;rounded=0;orthogonalLoop=1;jettySize=auto;html=1;exitX=0.5;exitY=1;exitDx=0;exitDy=0;entryX=0.5;entryY=0;entryDx=0;entryDy=0;" edge="1" parent="1" source="ta_ptb-M6hE-9gp1Du4E-48" target="ta_ptb-M6hE-9gp1Du4E-157">
          <mxGeometry relative="1" as="geometry">
            <mxPoint x="1714" y="427.25" as="targetPoint" />
          </mxGeometry>
        </mxCell>
        <mxCell id="ta_ptb-M6hE-9gp1Du4E-48" value="Start&lt;div&gt;POW_ID&lt;/div&gt;" style="ellipse;whiteSpace=wrap;html=1;aspect=fixed;" vertex="1" parent="1">
          <mxGeometry x="1674" y="313" width="80" height="80" as="geometry" />
        </mxCell>
        <mxCell id="ta_ptb-M6hE-9gp1Du4E-51" style="edgeStyle=orthogonalEdgeStyle;rounded=0;orthogonalLoop=1;jettySize=auto;html=1;exitX=0;exitY=0.5;exitDx=0;exitDy=0;fillColor=#66B2FF;entryX=1.048;entryY=0.392;entryDx=0;entryDy=0;entryPerimeter=0;" edge="1" parent="1" source="ta_ptb-M6hE-9gp1Du4E-56" target="-ybGdMk0P6drD3uHrzyD-7">
          <mxGeometry relative="1" as="geometry">
            <mxPoint x="1651" y="997" as="sourcePoint" />
            <mxPoint x="1595.5" y="562" as="targetPoint" />
          </mxGeometry>
        </mxCell>
        <mxCell id="-ybGdMk0P6drD3uHrzyD-1" value="SHIFT" style="edgeLabel;html=1;align=center;verticalAlign=middle;resizable=0;points=[];" connectable="0" vertex="1" parent="ta_ptb-M6hE-9gp1Du4E-51">
          <mxGeometry x="-0.1179" y="4" relative="1" as="geometry">
            <mxPoint y="-1" as="offset" />
          </mxGeometry>
        </mxCell>
        <mxCell id="ta_ptb-M6hE-9gp1Du4E-160" style="edgeStyle=orthogonalEdgeStyle;rounded=0;orthogonalLoop=1;jettySize=auto;html=1;exitX=0.5;exitY=1;exitDx=0;exitDy=0;" edge="1" parent="1" source="ta_ptb-M6hE-9gp1Du4E-56" target="ta_ptb-M6hE-9gp1Du4E-159">
          <mxGeometry relative="1" as="geometry" />
        </mxCell>
        <mxCell id="ta_ptb-M6hE-9gp1Du4E-166" value="YARD" style="edgeLabel;html=1;align=center;verticalAlign=middle;resizable=0;points=[];" vertex="1" connectable="0" parent="ta_ptb-M6hE-9gp1Du4E-160">
          <mxGeometry x="-0.5918" y="4" relative="1" as="geometry">
            <mxPoint x="-4" y="11" as="offset" />
          </mxGeometry>
        </mxCell>
        <mxCell id="ta_ptb-M6hE-9gp1Du4E-56" value="&lt;div align=&quot;center&quot;&gt;&lt;br&gt;&lt;/div&gt;&lt;div align=&quot;center&quot;&gt;Move kind ?&lt;br&gt;&lt;/div&gt;&lt;div&gt;&lt;br&gt;&lt;/div&gt;" style="rhombus;whiteSpace=wrap;html=1;fillColor=#f5f5f5;fontColor=#333333;strokeColor=#666666;dashed=1;" vertex="1" parent="1">
          <mxGeometry x="1652.25" y="530" width="125.5" height="63" as="geometry" />
        </mxCell>
        <mxCell id="ta_ptb-M6hE-9gp1Du4E-75" value="&lt;b&gt;&lt;font style=&quot;font-size: 14px;&quot;&gt;Diagram title:&lt;/font&gt;&lt;/b&gt; &lt;font style=&quot;font-size: 14px;&quot;&gt;YARD process&lt;/font&gt;&lt;div&gt;&lt;span style=&quot;font-size: 14px;&quot;&gt;&lt;br&gt;&lt;/span&gt;&lt;div&gt;&lt;b&gt;&lt;font style=&quot;font-size: 14px;&quot;&gt;Description:&lt;/font&gt;&lt;/b&gt;&amp;nbsp;&lt;font style=&quot;font-size: 14px;&quot;&gt;&lt;span style=&quot;background-color: initial;&quot;&gt;process of remarshaling between two of the&lt;/span&gt;&lt;span style=&quot;background-color: initial;&quot;&gt; yard&amp;nbsp;&lt;/span&gt;&lt;/font&gt;&lt;/div&gt;&lt;/div&gt;" style="rounded=1;whiteSpace=wrap;html=1;fillColor=none;align=left;" vertex="1" parent="1">
          <mxGeometry x="1380" y="190" width="229" height="101" as="geometry" />
        </mxCell>
        <mxCell id="ta_ptb-M6hE-9gp1Du4E-101" value="&lt;div&gt;&lt;b&gt;&amp;nbsp;Legend Abbreviation:&amp;nbsp;&lt;/b&gt;&lt;/div&gt;&lt;div&gt;&lt;b&gt;&lt;span style=&quot;white-space: pre;&quot;&gt;&#x9;&lt;/span&gt;POW: &lt;/b&gt;Point Of Work&lt;/div&gt;&lt;b&gt;&lt;span style=&quot;white-space: pre;&quot;&gt;&#x9;&lt;/span&gt;QC&lt;/b&gt;: Quay Crane&lt;div&gt;&lt;b&gt;&lt;span style=&quot;white-space: pre;&quot;&gt;&#x9;&lt;/span&gt;ITV&lt;/b&gt;: Internal Transport Vehicle&lt;/div&gt;&lt;div&gt;&lt;b&gt;&lt;span style=&quot;white-space: pre;&quot;&gt;&#x9;&lt;/span&gt;YC&lt;/b&gt;: Yard Crane&lt;/div&gt;&lt;div&gt;&lt;b&gt;&lt;span style=&quot;white-space: pre;&quot;&gt;&#x9;&lt;/span&gt;WI&lt;/b&gt;: Work Instruction&lt;/div&gt;" style="text;html=1;align=left;verticalAlign=middle;whiteSpace=wrap;rounded=1;strokeColor=default;" vertex="1" parent="1">
          <mxGeometry x="2224" y="190" width="220" height="101" as="geometry" />
        </mxCell>
        <mxCell id="ta_ptb-M6hE-9gp1Du4E-102" value="" style="group" connectable="0" vertex="1" parent="1">
          <mxGeometry x="1627" y="190" width="592" height="101" as="geometry" />
        </mxCell>
        <mxCell id="ta_ptb-M6hE-9gp1Du4E-103" value="" style="rounded=1;whiteSpace=wrap;html=1;" vertex="1" parent="ta_ptb-M6hE-9gp1Du4E-102">
          <mxGeometry width="575" height="101" as="geometry" />
        </mxCell>
        <mxCell id="ta_ptb-M6hE-9gp1Du4E-104" value="" style="whiteSpace=wrap;html=1;aspect=fixed;fillColor=#66B2FF;" vertex="1" parent="ta_ptb-M6hE-9gp1Du4E-102">
          <mxGeometry x="12" y="6.936813186813197" width="22" height="22" as="geometry" />
        </mxCell>
        <mxCell id="ta_ptb-M6hE-9gp1Du4E-105" value="" style="whiteSpace=wrap;html=1;aspect=fixed;fillColor=#60a917;strokeColor=#2D7600;fontColor=#ffffff;" vertex="1" parent="ta_ptb-M6hE-9gp1Du4E-102">
          <mxGeometry x="12" y="35.79395604395603" width="22" height="22" as="geometry" />
        </mxCell>
        <mxCell id="ta_ptb-M6hE-9gp1Du4E-106" value="" style="whiteSpace=wrap;html=1;aspect=fixed;fillColor=#6a00ff;fontColor=#ffffff;strokeColor=#3700CC;" vertex="1" parent="ta_ptb-M6hE-9gp1Du4E-102">
          <mxGeometry x="12" y="65.76098901098902" width="22" height="22" as="geometry" />
        </mxCell>
        <mxCell id="ta_ptb-M6hE-9gp1Du4E-107" value="QC process&amp;nbsp;" style="text;html=1;align=left;verticalAlign=middle;whiteSpace=wrap;rounded=0;strokeColor=none;" vertex="1" parent="ta_ptb-M6hE-9gp1Du4E-102">
          <mxGeometry x="38" y="6.936813186813197" width="172" height="24.417582417582416" as="geometry" />
        </mxCell>
        <mxCell id="ta_ptb-M6hE-9gp1Du4E-108" value="ITV process&amp;nbsp;" style="text;html=1;align=left;verticalAlign=middle;whiteSpace=wrap;rounded=0;strokeColor=none;" vertex="1" parent="ta_ptb-M6hE-9gp1Du4E-102">
          <mxGeometry x="38" y="35.79395604395603" width="169" height="24.417582417582416" as="geometry" />
        </mxCell>
        <mxCell id="ta_ptb-M6hE-9gp1Du4E-109" value="YC process&amp;nbsp;" style="text;html=1;align=left;verticalAlign=middle;whiteSpace=wrap;rounded=0;strokeColor=none;" vertex="1" parent="ta_ptb-M6hE-9gp1Du4E-102">
          <mxGeometry x="38" y="65.76098901098902" width="169" height="24.417582417582416" as="geometry" />
        </mxCell>
        <mxCell id="ta_ptb-M6hE-9gp1Du4E-110" value="&lt;span style=&quot;text-align: left;&quot;&gt;&amp;nbsp;YC Resource&lt;/span&gt;&lt;span style=&quot;text-align: left; background-color: initial;&quot;&gt;&amp;nbsp;pool&lt;/span&gt;" style="sketch=0;outlineConnect=0;dashed=0;verticalLabelPosition=middle;verticalAlign=middle;align=left;html=1;fontSize=12;fontStyle=0;aspect=fixed;shape=mxgraph.aws4.resourceIcon;resIcon=mxgraph.aws4.queue;labelPosition=right;fillColor=#E1D5E7;" vertex="1" parent="ta_ptb-M6hE-9gp1Du4E-102">
          <mxGeometry x="120" y="7.769230769230774" width="22" height="22" as="geometry" />
        </mxCell>
        <mxCell id="ta_ptb-M6hE-9gp1Du4E-111" value="" style="whiteSpace=wrap;html=1;aspect=fixed;fillColor=#dae8fc;dashed=1;strokeColor=#6c8ebf;" vertex="1" parent="ta_ptb-M6hE-9gp1Du4E-102">
          <mxGeometry x="258" y="36.34890109890108" width="22" height="22" as="geometry" />
        </mxCell>
        <mxCell id="ta_ptb-M6hE-9gp1Du4E-112" value="&lt;span style=&quot;text-align: left;&quot;&gt;&amp;nbsp;ITV Resource&lt;/span&gt;&lt;span style=&quot;text-align: left; background-color: initial;&quot;&gt;&amp;nbsp;pool&lt;/span&gt;" style="sketch=0;outlineConnect=0;dashed=0;verticalLabelPosition=middle;verticalAlign=middle;align=left;html=1;fontSize=12;fontStyle=0;aspect=fixed;shape=mxgraph.aws4.resourceIcon;resIcon=mxgraph.aws4.queue;labelPosition=right;fillColor=#DAE8FC;" vertex="1" parent="ta_ptb-M6hE-9gp1Du4E-102">
          <mxGeometry x="120" y="35.79395604395603" width="22" height="22" as="geometry" />
        </mxCell>
        <mxCell id="ta_ptb-M6hE-9gp1Du4E-113" value="&lt;span style=&quot;text-align: left;&quot;&gt;&amp;nbsp;QC Resource&lt;/span&gt;&lt;span style=&quot;text-align: left; background-color: initial;&quot;&gt;&amp;nbsp;pool&lt;/span&gt;" style="sketch=0;outlineConnect=0;dashed=0;verticalLabelPosition=middle;verticalAlign=middle;align=left;html=1;fontSize=12;fontStyle=0;aspect=fixed;shape=mxgraph.aws4.resourceIcon;resIcon=mxgraph.aws4.queue;labelPosition=right;fillColor=#FFE6CC;" vertex="1" parent="ta_ptb-M6hE-9gp1Du4E-102">
          <mxGeometry x="120" y="65.76098901098902" width="22" height="22" as="geometry" />
        </mxCell>
        <mxCell id="ta_ptb-M6hE-9gp1Du4E-114" value="" style="whiteSpace=wrap;html=1;aspect=fixed;fillColor=#e1d5e7;dashed=1;strokeColor=#9673a6;labelPosition=right;verticalLabelPosition=middle;align=left;verticalAlign=middle;" vertex="1" parent="ta_ptb-M6hE-9gp1Du4E-102">
          <mxGeometry x="258" y="6.936813186813197" width="22" height="22" as="geometry" />
        </mxCell>
        <mxCell id="ta_ptb-M6hE-9gp1Du4E-115" value="" style="whiteSpace=wrap;html=1;aspect=fixed;fillColor=#fff2cc;strokeColor=#d6b656;dashed=1;" vertex="1" parent="ta_ptb-M6hE-9gp1Du4E-102">
          <mxGeometry x="258" y="65.76098901098902" width="22" height="22" as="geometry" />
        </mxCell>
        <mxCell id="ta_ptb-M6hE-9gp1Du4E-116" value="&amp;nbsp;YC request &amp;amp; release" style="text;html=1;align=left;verticalAlign=middle;whiteSpace=wrap;rounded=0;strokeColor=none;" vertex="1" parent="ta_ptb-M6hE-9gp1Du4E-102">
          <mxGeometry x="280" y="6.936813186813197" width="147" height="24.417582417582416" as="geometry" />
        </mxCell>
        <mxCell id="ta_ptb-M6hE-9gp1Du4E-117" value="&amp;nbsp;ITV request &amp;amp; release" style="text;html=1;align=left;verticalAlign=middle;whiteSpace=wrap;rounded=0;strokeColor=none;" vertex="1" parent="ta_ptb-M6hE-9gp1Du4E-102">
          <mxGeometry x="280" y="35.79395604395603" width="146" height="24.417582417582416" as="geometry" />
        </mxCell>
        <mxCell id="ta_ptb-M6hE-9gp1Du4E-118" value="&amp;nbsp;QC request &amp;amp; release" style="text;html=1;align=left;verticalAlign=middle;whiteSpace=wrap;rounded=0;strokeColor=none;" vertex="1" parent="ta_ptb-M6hE-9gp1Du4E-102">
          <mxGeometry x="280" y="65.76098901098902" width="139" height="24.417582417582416" as="geometry" />
        </mxCell>
        <mxCell id="ta_ptb-M6hE-9gp1Du4E-119" value="" style="rhombus;whiteSpace=wrap;html=1;fillColor=#f5f5f5;fontColor=#333333;strokeColor=#666666;dashed=1;" vertex="1" parent="ta_ptb-M6hE-9gp1Du4E-102">
          <mxGeometry x="414" y="6.139999999999986" width="24" height="24" as="geometry" />
        </mxCell>
        <mxCell id="ta_ptb-M6hE-9gp1Du4E-120" value="Test Condition" style="text;html=1;align=left;verticalAlign=middle;whiteSpace=wrap;rounded=0;strokeColor=none;" vertex="1" parent="ta_ptb-M6hE-9gp1Du4E-102">
          <mxGeometry x="445" y="5.72681318681316" width="147" height="24.417582417582416" as="geometry" />
        </mxCell>
        <mxCell id="ta_ptb-M6hE-9gp1Du4E-121" value="" style="whiteSpace=wrap;html=1;aspect=fixed;fillColor=#f5f5f5;fontColor=#333333;strokeColor=#666666;dashed=1;" vertex="1" parent="ta_ptb-M6hE-9gp1Du4E-102">
          <mxGeometry x="418" y="34.589999999999975" width="22" height="22" as="geometry" />
        </mxCell>
        <mxCell id="ta_ptb-M6hE-9gp1Du4E-122" value="&lt;span style=&quot;color: rgb(51, 51, 51); text-align: center;&quot;&gt;Logical&amp;nbsp;&lt;/span&gt;&lt;span style=&quot;color: rgb(51, 51, 51); text-align: center;&quot;&gt;Process&amp;nbsp;&lt;/span&gt;" style="text;html=1;align=left;verticalAlign=middle;whiteSpace=wrap;rounded=0;strokeColor=none;" vertex="1" parent="ta_ptb-M6hE-9gp1Du4E-102">
          <mxGeometry x="445" y="33.376813186813195" width="147" height="24.417582417582416" as="geometry" />
        </mxCell>
        <mxCell id="ta_ptb-M6hE-9gp1Du4E-123" value="" style="whiteSpace=wrap;html=1;aspect=fixed;fillColor=#647687;strokeColor=#314354;fontColor=#ffffff;" vertex="1" parent="ta_ptb-M6hE-9gp1Du4E-102">
          <mxGeometry x="418" y="66.97000000000003" width="22" height="22" as="geometry" />
        </mxCell>
        <mxCell id="ta_ptb-M6hE-9gp1Du4E-124" value="&lt;div style=&quot;text-align: center;&quot;&gt;&lt;span style=&quot;background-color: initial;&quot;&gt;&lt;font color=&quot;#333333&quot;&gt;Another Flow Diagram&lt;/font&gt;&lt;/span&gt;&lt;/div&gt;" style="text;html=1;align=left;verticalAlign=middle;whiteSpace=wrap;rounded=0;strokeColor=none;" vertex="1" parent="ta_ptb-M6hE-9gp1Du4E-102">
          <mxGeometry x="445" y="64.5568131868132" width="147" height="24.417582417582416" as="geometry" />
        </mxCell>
        <mxCell id="ta_ptb-M6hE-9gp1Du4E-130" value="&lt;b&gt;QC processes&lt;/b&gt;" style="text;html=1;align=center;verticalAlign=middle;whiteSpace=wrap;rounded=0;" vertex="1" parent="1">
          <mxGeometry x="1477.13" y="1218" width="140" height="30" as="geometry" />
        </mxCell>
        <mxCell id="ta_ptb-M6hE-9gp1Du4E-131" value="QC -&amp;nbsp;&lt;br&gt;fetch()" style="whiteSpace=wrap;html=1;aspect=fixed;fillColor=#66B2FF;" vertex="1" parent="1">
          <mxGeometry x="1633.13" y="1193" width="80" height="80" as="geometry" />
        </mxCell>
        <mxCell id="ta_ptb-M6hE-9gp1Du4E-132" value="QC -&amp;nbsp;&lt;br&gt;put()" style="whiteSpace=wrap;html=1;aspect=fixed;fillColor=#66B2FF;" vertex="1" parent="1">
          <mxGeometry x="1720.63" y="1193" width="80" height="80" as="geometry" />
        </mxCell>
        <mxCell id="ta_ptb-M6hE-9gp1Du4E-133" value="QC -&amp;nbsp;&lt;br&gt;get ready to put to ITV()" style="whiteSpace=wrap;html=1;aspect=fixed;fillColor=#66B2FF;" vertex="1" parent="1">
          <mxGeometry x="1809.13" y="1193" width="80" height="80" as="geometry" />
        </mxCell>
        <mxCell id="ta_ptb-M6hE-9gp1Du4E-134" value="QC -&amp;nbsp;&lt;br&gt;get ready to fetch from ITV()" style="whiteSpace=wrap;html=1;aspect=fixed;fillColor=#66B2FF;" vertex="1" parent="1">
          <mxGeometry x="1897.38" y="1193" width="80" height="80" as="geometry" />
        </mxCell>
        <mxCell id="ta_ptb-M6hE-9gp1Du4E-135" value="&lt;b&gt;ITV processes&lt;/b&gt;" style="text;html=1;align=center;verticalAlign=middle;whiteSpace=wrap;rounded=0;" vertex="1" parent="1">
          <mxGeometry x="1477.13" y="1315" width="140" height="30" as="geometry" />
        </mxCell>
        <mxCell id="ta_ptb-M6hE-9gp1Du4E-136" value="ITV - Carry()" style="whiteSpace=wrap;html=1;aspect=fixed;fillColor=#60a917;strokeColor=#2D7600;fontColor=#ffffff;" vertex="1" parent="1">
          <mxGeometry x="1633.13" y="1290" width="80" height="80" as="geometry" />
        </mxCell>
        <mxCell id="ta_ptb-M6hE-9gp1Du4E-137" value="ITV - get ready to fetch()" style="whiteSpace=wrap;html=1;aspect=fixed;fillColor=#60a917;strokeColor=#2D7600;fontColor=#ffffff;" vertex="1" parent="1">
          <mxGeometry x="1720.63" y="1290" width="80" height="80" as="geometry" />
        </mxCell>
        <mxCell id="ta_ptb-M6hE-9gp1Du4E-138" value="ITV - get ready to put()" style="whiteSpace=wrap;html=1;aspect=fixed;fillColor=#60a917;strokeColor=#2D7600;fontColor=#ffffff;" vertex="1" parent="1">
          <mxGeometry x="1809.13" y="1290" width="80" height="80" as="geometry" />
        </mxCell>
        <mxCell id="ta_ptb-M6hE-9gp1Du4E-139" value="ITV - get release from YC()" style="whiteSpace=wrap;html=1;aspect=fixed;fillColor=#60a917;fontColor=#ffffff;strokeColor=#2D7600;" vertex="1" parent="1">
          <mxGeometry x="1897.38" y="1292" width="78" height="78" as="geometry" />
        </mxCell>
        <mxCell id="ta_ptb-M6hE-9gp1Du4E-140" value="ITV - get release from QC()" style="whiteSpace=wrap;html=1;aspect=fixed;fillColor=#60a917;fontColor=#ffffff;strokeColor=#2D7600;" vertex="1" parent="1">
          <mxGeometry x="1983.13" y="1292" width="78" height="78" as="geometry" />
        </mxCell>
        <mxCell id="ta_ptb-M6hE-9gp1Du4E-141" value="&lt;b&gt;YC processes&lt;/b&gt;" style="text;html=1;align=center;verticalAlign=middle;whiteSpace=wrap;rounded=0;" vertex="1" parent="1">
          <mxGeometry x="1477.13" y="1407" width="140" height="30" as="geometry" />
        </mxCell>
        <mxCell id="ta_ptb-M6hE-9gp1Du4E-142" value="YC - get ready to fetch from ITV()" style="whiteSpace=wrap;html=1;aspect=fixed;fillColor=#6a00ff;fontColor=#ffffff;strokeColor=#3700CC;" vertex="1" parent="1">
          <mxGeometry x="1809.13" y="1387" width="80" height="80" as="geometry" />
        </mxCell>
        <mxCell id="ta_ptb-M6hE-9gp1Du4E-143" value="&lt;span style=&quot;font-weight: normal;&quot;&gt;YC&lt;/span&gt;&lt;div&gt;&amp;nbsp; &lt;span style=&quot;font-weight: normal;&quot;&gt;put()&lt;/span&gt;&amp;nbsp;&lt;/div&gt;" style="whiteSpace=wrap;html=1;aspect=fixed;fillColor=#6a00ff;fontColor=#ffffff;strokeColor=#3700CC;fontStyle=1" vertex="1" parent="1">
          <mxGeometry x="1633.13" y="1387" width="80" height="80" as="geometry" />
        </mxCell>
        <mxCell id="ta_ptb-M6hE-9gp1Du4E-144" value="YC&lt;div&gt;&amp;nbsp; fetch()&amp;nbsp;&lt;/div&gt;" style="whiteSpace=wrap;html=1;aspect=fixed;fillColor=#6a00ff;fontColor=#ffffff;strokeColor=#3700CC;" vertex="1" parent="1">
          <mxGeometry x="1721.13" y="1387" width="80" height="80" as="geometry" />
        </mxCell>
        <mxCell id="ta_ptb-M6hE-9gp1Du4E-145" value="YC - get ready to put to ITV()" style="whiteSpace=wrap;html=1;aspect=fixed;fillColor=#6a00ff;fontColor=#ffffff;strokeColor=#3700CC;" vertex="1" parent="1">
          <mxGeometry x="1897.38" y="1387" width="80" height="80" as="geometry" />
        </mxCell>
        <mxCell id="ta_ptb-M6hE-9gp1Du4E-146" value="&lt;b&gt;&lt;font style=&quot;font-size: 14px;&quot;&gt;Main Processes&lt;/font&gt;&lt;/b&gt;" style="text;html=1;align=center;verticalAlign=middle;whiteSpace=wrap;rounded=0;" vertex="1" parent="1">
          <mxGeometry x="1675.01" y="1138" width="221.25" height="30" as="geometry" />
        </mxCell>
        <mxCell id="ta_ptb-M6hE-9gp1Du4E-147" value="&lt;h1 style=&quot;margin-top: 0px;&quot;&gt;Note:&amp;nbsp;&lt;/h1&gt;&lt;p&gt;&lt;font color=&quot;#ff3333&quot;&gt;Ce n&#39;est pas une legend. ça c&#39;est juste pour vous, pour vous rappeler les processus principaux. il faut pas le copier sur les autres schémas ! .&amp;nbsp;&lt;/font&gt;&lt;/p&gt;" style="text;html=1;whiteSpace=wrap;overflow=hidden;rounded=0;" vertex="1" parent="1">
          <mxGeometry x="2082.38" y="1250" width="180" height="120" as="geometry" />
        </mxCell>
        <mxCell id="ta_ptb-M6hE-9gp1Du4E-158" style="edgeStyle=orthogonalEdgeStyle;rounded=0;orthogonalLoop=1;jettySize=auto;html=1;exitX=0.5;exitY=1;exitDx=0;exitDy=0;entryX=0.5;entryY=0;entryDx=0;entryDy=0;" edge="1" parent="1" source="ta_ptb-M6hE-9gp1Du4E-157" target="ta_ptb-M6hE-9gp1Du4E-56">
          <mxGeometry relative="1" as="geometry" />
        </mxCell>
        <mxCell id="ta_ptb-M6hE-9gp1Du4E-157" value="Select WI" style="whiteSpace=wrap;html=1;aspect=fixed;fillColor=#f5f5f5;fontColor=#333333;strokeColor=#666666;dashed=1;" vertex="1" parent="1">
          <mxGeometry x="1674" y="417.25" width="80" height="80" as="geometry" />
        </mxCell>
        <mxCell id="ta_ptb-M6hE-9gp1Du4E-170" style="edgeStyle=orthogonalEdgeStyle;rounded=0;orthogonalLoop=1;jettySize=auto;html=1;exitX=0.5;exitY=1;exitDx=0;exitDy=0;entryX=0.5;entryY=0;entryDx=0;entryDy=0;" edge="1" parent="1" source="ta_ptb-M6hE-9gp1Du4E-159" target="ta_ptb-M6hE-9gp1Du4E-169">
          <mxGeometry relative="1" as="geometry" />
        </mxCell>
        <mxCell id="ta_ptb-M6hE-9gp1Du4E-159" value="Request YC1" style="whiteSpace=wrap;html=1;aspect=fixed;fillColor=#e1d5e7;dashed=1;strokeColor=#9673a6;" vertex="1" parent="1">
          <mxGeometry x="1685" y="643" width="60" height="60" as="geometry" />
        </mxCell>
        <mxCell id="ta_ptb-M6hE-9gp1Du4E-172" style="edgeStyle=orthogonalEdgeStyle;rounded=0;orthogonalLoop=1;jettySize=auto;html=1;exitX=0.5;exitY=1;exitDx=0;exitDy=0;entryX=0;entryY=0.5;entryDx=0;entryDy=0;" edge="1" parent="1" source="ta_ptb-M6hE-9gp1Du4E-169" target="ta_ptb-M6hE-9gp1Du4E-175">
          <mxGeometry relative="1" as="geometry">
            <mxPoint x="1715" y="847" as="targetPoint" />
          </mxGeometry>
        </mxCell>
        <mxCell id="ta_ptb-M6hE-9gp1Du4E-169" value="YC1&lt;div&gt;&amp;nbsp; fetch()&amp;nbsp;&lt;/div&gt;" style="whiteSpace=wrap;html=1;aspect=fixed;fillColor=#6a00ff;fontColor=#ffffff;strokeColor=#3700CC;" vertex="1" parent="1">
          <mxGeometry x="1674" y="732" width="80" height="80" as="geometry" />
        </mxCell>
        <mxCell id="Uw7sgQj1hwImQHodTMzt-2" style="edgeStyle=orthogonalEdgeStyle;rounded=0;orthogonalLoop=1;jettySize=auto;html=1;entryX=0.5;entryY=1;entryDx=0;entryDy=0;" edge="1" parent="1" source="ta_ptb-M6hE-9gp1Du4E-173" target="-ybGdMk0P6drD3uHrzyD-7">
          <mxGeometry relative="1" as="geometry" />
        </mxCell>
        <mxCell id="ta_ptb-M6hE-9gp1Du4E-173" value="&lt;span style=&quot;text-align: left;&quot;&gt;&amp;nbsp;YC1&lt;/span&gt;&lt;span style=&quot;text-align: left; background-color: initial;&quot;&gt; Pool&amp;nbsp;&lt;/span&gt;&lt;span style=&quot;text-align: left; background-color: initial;&quot;&gt;IDLE&lt;/span&gt;" style="sketch=0;outlineConnect=0;strokeColor=#9673a6;fillColor=#e1d5e7;dashed=0;verticalLabelPosition=top;verticalAlign=bottom;align=center;html=1;fontSize=12;fontStyle=0;aspect=fixed;shape=mxgraph.aws4.resourceIcon;resIcon=mxgraph.aws4.queue;labelPosition=center;" vertex="1" parent="1">
          <mxGeometry x="1518.07" y="633" width="61" height="61" as="geometry" />
        </mxCell>
        <mxCell id="ta_ptb-M6hE-9gp1Du4E-195" style="edgeStyle=orthogonalEdgeStyle;rounded=0;orthogonalLoop=1;jettySize=auto;html=1;exitX=0.5;exitY=0;exitDx=0;exitDy=0;entryX=0.5;entryY=1;entryDx=0;entryDy=0;" edge="1" parent="1" source="ta_ptb-M6hE-9gp1Du4E-175" target="ta_ptb-M6hE-9gp1Du4E-194">
          <mxGeometry relative="1" as="geometry" />
        </mxCell>
        <mxCell id="ta_ptb-M6hE-9gp1Du4E-175" value="Request ITV" style="whiteSpace=wrap;html=1;aspect=fixed;fillColor=#dae8fc;dashed=1;strokeColor=#6c8ebf;" vertex="1" parent="1">
          <mxGeometry x="2061.26" y="851.5" width="60" height="60" as="geometry" />
        </mxCell>
        <mxCell id="ta_ptb-M6hE-9gp1Du4E-177" style="edgeStyle=orthogonalEdgeStyle;rounded=0;orthogonalLoop=1;jettySize=auto;html=1;entryX=0.5;entryY=1;entryDx=0;entryDy=0;" edge="1" parent="1" source="ta_ptb-M6hE-9gp1Du4E-176" target="ta_ptb-M6hE-9gp1Du4E-175">
          <mxGeometry relative="1" as="geometry" />
        </mxCell>
        <mxCell id="ta_ptb-M6hE-9gp1Du4E-176" value="ITV Pool IDLE&amp;nbsp; &amp;nbsp;" style="sketch=0;outlineConnect=0;strokeColor=#6c8ebf;fillColor=#dae8fc;dashed=0;verticalLabelPosition=middle;verticalAlign=middle;align=right;html=1;fontSize=12;fontStyle=0;aspect=fixed;shape=mxgraph.aws4.resourceIcon;resIcon=mxgraph.aws4.queue;labelPosition=left;" vertex="1" parent="1">
          <mxGeometry x="2061.26" y="943" width="60" height="60" as="geometry" />
        </mxCell>
        <mxCell id="ta_ptb-M6hE-9gp1Du4E-193" style="edgeStyle=orthogonalEdgeStyle;rounded=0;orthogonalLoop=1;jettySize=auto;html=1;exitX=0.5;exitY=0;exitDx=0;exitDy=0;" edge="1" parent="1" source="ta_ptb-M6hE-9gp1Du4E-191" target="ta_ptb-M6hE-9gp1Du4E-173">
          <mxGeometry relative="1" as="geometry" />
        </mxCell>
        <mxCell id="ta_ptb-M6hE-9gp1Du4E-191" value="Release YC" style="whiteSpace=wrap;html=1;aspect=fixed;fillColor=#e1d5e7;dashed=1;strokeColor=#9673a6;" vertex="1" parent="1">
          <mxGeometry x="1519.07" y="733" width="60" height="60" as="geometry" />
        </mxCell>
        <mxCell id="ta_ptb-M6hE-9gp1Du4E-197" style="edgeStyle=orthogonalEdgeStyle;rounded=0;orthogonalLoop=1;jettySize=auto;html=1;entryX=0.5;entryY=1;entryDx=0;entryDy=0;" edge="1" parent="1" source="ta_ptb-M6hE-9gp1Du4E-194" target="ta_ptb-M6hE-9gp1Du4E-196">
          <mxGeometry relative="1" as="geometry" />
        </mxCell>
        <mxCell id="ta_ptb-M6hE-9gp1Du4E-194" value="ITV - get ready to fetch" style="whiteSpace=wrap;html=1;aspect=fixed;fillColor=#60a917;strokeColor=#2D7600;fontColor=#ffffff;" vertex="1" parent="1">
          <mxGeometry x="2051.26" y="743" width="80" height="80" as="geometry" />
        </mxCell>
        <mxCell id="ta_ptb-M6hE-9gp1Du4E-219" style="edgeStyle=orthogonalEdgeStyle;rounded=0;orthogonalLoop=1;jettySize=auto;html=1;exitX=0.5;exitY=0;exitDx=0;exitDy=0;entryX=0.5;entryY=1;entryDx=0;entryDy=0;" edge="1" parent="1" source="ta_ptb-M6hE-9gp1Du4E-196" target="ta_ptb-M6hE-9gp1Du4E-201">
          <mxGeometry relative="1" as="geometry" />
        </mxCell>
        <mxCell id="i-rnj0Xy2W10ClSQeITl-11" style="edgeStyle=orthogonalEdgeStyle;rounded=0;orthogonalLoop=1;jettySize=auto;html=1;exitX=0;exitY=0.5;exitDx=0;exitDy=0;entryX=1;entryY=0.5;entryDx=0;entryDy=0;" edge="1" parent="1" source="ta_ptb-M6hE-9gp1Du4E-196" target="i-rnj0Xy2W10ClSQeITl-1">
          <mxGeometry relative="1" as="geometry" />
        </mxCell>
        <mxCell id="ta_ptb-M6hE-9gp1Du4E-196" value="YC1 - get ready to put to ITV()" style="whiteSpace=wrap;html=1;aspect=fixed;fillColor=#6a00ff;fontColor=#ffffff;strokeColor=#3700CC;" vertex="1" parent="1">
          <mxGeometry x="2051.26" y="633" width="80" height="80" as="geometry" />
        </mxCell>
        <mxCell id="ta_ptb-M6hE-9gp1Du4E-220" style="edgeStyle=orthogonalEdgeStyle;rounded=0;orthogonalLoop=1;jettySize=auto;html=1;" edge="1" parent="1" source="ta_ptb-M6hE-9gp1Du4E-201" target="ta_ptb-M6hE-9gp1Du4E-212">
          <mxGeometry relative="1" as="geometry" />
        </mxCell>
        <mxCell id="ta_ptb-M6hE-9gp1Du4E-201" value="ITV - Carry" style="whiteSpace=wrap;html=1;aspect=fixed;fillColor=#60a917;strokeColor=#2D7600;fontColor=#ffffff;" vertex="1" parent="1">
          <mxGeometry x="2051.26" y="507.25" width="80" height="80" as="geometry" />
        </mxCell>
        <mxCell id="ta_ptb-M6hE-9gp1Du4E-202" style="edgeStyle=orthogonalEdgeStyle;rounded=0;orthogonalLoop=1;jettySize=auto;html=1;entryX=0.5;entryY=0;entryDx=0;entryDy=0;" edge="1" parent="1" source="ta_ptb-M6hE-9gp1Du4E-204" target="ta_ptb-M6hE-9gp1Du4E-207">
          <mxGeometry relative="1" as="geometry" />
        </mxCell>
        <mxCell id="ta_ptb-M6hE-9gp1Du4E-203" value="" style="edgeStyle=orthogonalEdgeStyle;rounded=0;orthogonalLoop=1;jettySize=auto;html=1;" edge="1" parent="1" source="ta_ptb-M6hE-9gp1Du4E-204" target="ta_ptb-M6hE-9gp1Du4E-210">
          <mxGeometry relative="1" as="geometry" />
        </mxCell>
        <mxCell id="ta_ptb-M6hE-9gp1Du4E-204" value="YC2 - get ready to fetch from ITV" style="whiteSpace=wrap;html=1;aspect=fixed;fillColor=#6a00ff;fontColor=#ffffff;strokeColor=#3700CC;" vertex="1" parent="1">
          <mxGeometry x="2209" y="709" width="80" height="80" as="geometry" />
        </mxCell>
        <mxCell id="ta_ptb-M6hE-9gp1Du4E-224" style="edgeStyle=orthogonalEdgeStyle;rounded=0;orthogonalLoop=1;jettySize=auto;html=1;entryX=0.5;entryY=0;entryDx=0;entryDy=0;" edge="1" parent="1" source="ta_ptb-M6hE-9gp1Du4E-207" target="ta_ptb-M6hE-9gp1Du4E-221">
          <mxGeometry relative="1" as="geometry" />
        </mxCell>
        <mxCell id="ta_ptb-M6hE-9gp1Du4E-207" value="ITV - get relaese from YC" style="whiteSpace=wrap;html=1;aspect=fixed;fillColor=#60a917;fontColor=#ffffff;strokeColor=#2D7600;" vertex="1" parent="1">
          <mxGeometry x="2210" y="818" width="78" height="78" as="geometry" />
        </mxCell>
        <mxCell id="ta_ptb-M6hE-9gp1Du4E-208" value="" style="edgeStyle=orthogonalEdgeStyle;rounded=0;orthogonalLoop=1;jettySize=auto;html=1;" edge="1" parent="1" source="ta_ptb-M6hE-9gp1Du4E-210" target="ta_ptb-M6hE-9gp1Du4E-218">
          <mxGeometry relative="1" as="geometry" />
        </mxCell>
        <mxCell id="ta_ptb-M6hE-9gp1Du4E-209" value="&lt;font color=&quot;#ffb570&quot;&gt;YC2 Idle&lt;/font&gt;" style="edgeLabel;html=1;align=center;verticalAlign=middle;resizable=0;points=[];" connectable="0" vertex="1" parent="ta_ptb-M6hE-9gp1Du4E-208">
          <mxGeometry x="-0.0864" y="-1" relative="1" as="geometry">
            <mxPoint x="-1" y="1" as="offset" />
          </mxGeometry>
        </mxCell>
        <mxCell id="ta_ptb-M6hE-9gp1Du4E-222" value="" style="edgeStyle=orthogonalEdgeStyle;rounded=0;orthogonalLoop=1;jettySize=auto;html=1;" edge="1" parent="1" source="ta_ptb-M6hE-9gp1Du4E-210" target="ta_ptb-M6hE-9gp1Du4E-218">
          <mxGeometry relative="1" as="geometry" />
        </mxCell>
        <mxCell id="ta_ptb-M6hE-9gp1Du4E-210" value="YC2&lt;div&gt;&amp;nbsp; put()&amp;nbsp;&lt;/div&gt;" style="whiteSpace=wrap;html=1;aspect=fixed;fillColor=#6a00ff;fontColor=#ffffff;strokeColor=#3700CC;" vertex="1" parent="1">
          <mxGeometry x="2364" y="709" width="80" height="80" as="geometry" />
        </mxCell>
        <mxCell id="ta_ptb-M6hE-9gp1Du4E-211" style="edgeStyle=orthogonalEdgeStyle;rounded=0;orthogonalLoop=1;jettySize=auto;html=1;exitX=0.5;exitY=1;exitDx=0;exitDy=0;entryX=0.5;entryY=0;entryDx=0;entryDy=0;" edge="1" parent="1" source="ta_ptb-M6hE-9gp1Du4E-212" target="ta_ptb-M6hE-9gp1Du4E-214">
          <mxGeometry relative="1" as="geometry" />
        </mxCell>
        <mxCell id="ta_ptb-M6hE-9gp1Du4E-212" value="Request YC2" style="whiteSpace=wrap;html=1;aspect=fixed;fillColor=#e1d5e7;dashed=1;strokeColor=#9673a6;" vertex="1" parent="1">
          <mxGeometry x="2229" y="517.25" width="60" height="60" as="geometry" />
        </mxCell>
        <mxCell id="ta_ptb-M6hE-9gp1Du4E-213" style="edgeStyle=orthogonalEdgeStyle;rounded=0;orthogonalLoop=1;jettySize=auto;html=1;" edge="1" parent="1" source="ta_ptb-M6hE-9gp1Du4E-214">
          <mxGeometry relative="1" as="geometry">
            <mxPoint x="2249" y="705.5" as="targetPoint" />
          </mxGeometry>
        </mxCell>
        <mxCell id="ta_ptb-M6hE-9gp1Du4E-214" value="ITV - get ready to put" style="whiteSpace=wrap;html=1;aspect=fixed;fillColor=#60a917;strokeColor=#2D7600;fontColor=#ffffff;" vertex="1" parent="1">
          <mxGeometry x="2209" y="598.5" width="80" height="80" as="geometry" />
        </mxCell>
        <mxCell id="ta_ptb-M6hE-9gp1Du4E-215" style="edgeStyle=orthogonalEdgeStyle;rounded=0;orthogonalLoop=1;jettySize=auto;html=1;entryX=1;entryY=0.5;entryDx=0;entryDy=0;" edge="1" parent="1" source="ta_ptb-M6hE-9gp1Du4E-216" target="ta_ptb-M6hE-9gp1Du4E-212">
          <mxGeometry relative="1" as="geometry" />
        </mxCell>
        <mxCell id="ta_ptb-M6hE-9gp1Du4E-216" value="&lt;span style=&quot;text-align: left;&quot;&gt;&amp;nbsp;YC&lt;/span&gt;&lt;span style=&quot;text-align: left; background-color: initial;&quot;&gt;2 Pool&amp;nbsp;&lt;/span&gt;&lt;span style=&quot;text-align: left; background-color: initial;&quot;&gt;IDLE&lt;/span&gt;" style="sketch=0;outlineConnect=0;strokeColor=#9673a6;fillColor=#e1d5e7;dashed=0;verticalLabelPosition=top;verticalAlign=bottom;align=center;html=1;fontSize=12;fontStyle=0;aspect=fixed;shape=mxgraph.aws4.resourceIcon;resIcon=mxgraph.aws4.queue;labelPosition=center;" vertex="1" parent="1">
          <mxGeometry x="2374" y="517.25" width="60" height="60" as="geometry" />
        </mxCell>
        <mxCell id="ta_ptb-M6hE-9gp1Du4E-217" value="" style="edgeStyle=orthogonalEdgeStyle;rounded=0;orthogonalLoop=1;jettySize=auto;html=1;" edge="1" parent="1" source="ta_ptb-M6hE-9gp1Du4E-218" target="ta_ptb-M6hE-9gp1Du4E-216">
          <mxGeometry relative="1" as="geometry" />
        </mxCell>
        <mxCell id="ta_ptb-M6hE-9gp1Du4E-218" value="Release YC2" style="whiteSpace=wrap;html=1;aspect=fixed;fillColor=#e1d5e7;dashed=1;strokeColor=#9673a6;" vertex="1" parent="1">
          <mxGeometry x="2374" y="608.5" width="60" height="60" as="geometry" />
        </mxCell>
        <mxCell id="ta_ptb-M6hE-9gp1Du4E-227" style="edgeStyle=orthogonalEdgeStyle;rounded=0;orthogonalLoop=1;jettySize=auto;html=1;exitX=0;exitY=0.5;exitDx=0;exitDy=0;" edge="1" parent="1" source="ta_ptb-M6hE-9gp1Du4E-221" target="ta_ptb-M6hE-9gp1Du4E-176">
          <mxGeometry relative="1" as="geometry" />
        </mxCell>
        <mxCell id="ta_ptb-M6hE-9gp1Du4E-221" value="Request ITV" style="whiteSpace=wrap;html=1;aspect=fixed;fillColor=#dae8fc;dashed=1;strokeColor=#6c8ebf;" vertex="1" parent="1">
          <mxGeometry x="2219" y="943" width="60" height="60" as="geometry" />
        </mxCell>
        <mxCell id="-ybGdMk0P6drD3uHrzyD-10" style="edgeStyle=orthogonalEdgeStyle;rounded=0;orthogonalLoop=1;jettySize=auto;html=1;entryX=1;entryY=0.5;entryDx=0;entryDy=0;" edge="1" parent="1" source="-ybGdMk0P6drD3uHrzyD-7" target="-ybGdMk0P6drD3uHrzyD-8">
          <mxGeometry relative="1" as="geometry" />
        </mxCell>
        <mxCell id="-ybGdMk0P6drD3uHrzyD-7" value="Request YC" style="whiteSpace=wrap;html=1;aspect=fixed;fillColor=#e1d5e7;dashed=1;strokeColor=#9673a6;" vertex="1" parent="1">
          <mxGeometry x="1520" y="538.5" width="57.13" height="57.13" as="geometry" />
        </mxCell>
        <mxCell id="-ybGdMk0P6drD3uHrzyD-12" style="edgeStyle=orthogonalEdgeStyle;rounded=0;orthogonalLoop=1;jettySize=auto;html=1;exitX=0.5;exitY=1;exitDx=0;exitDy=0;entryX=0.5;entryY=0;entryDx=0;entryDy=0;" edge="1" parent="1" source="-ybGdMk0P6drD3uHrzyD-8" target="-ybGdMk0P6drD3uHrzyD-9">
          <mxGeometry relative="1" as="geometry" />
        </mxCell>
        <mxCell id="-ybGdMk0P6drD3uHrzyD-8" value="YC&lt;div&gt;&amp;nbsp; fetch()&amp;nbsp;&lt;/div&gt;" style="whiteSpace=wrap;html=1;aspect=fixed;fillColor=#6a00ff;fontColor=#ffffff;strokeColor=#3700CC;" vertex="1" parent="1">
          <mxGeometry x="1390" y="527.07" width="80" height="80" as="geometry" />
        </mxCell>
        <mxCell id="-ybGdMk0P6drD3uHrzyD-13" style="edgeStyle=orthogonalEdgeStyle;rounded=0;orthogonalLoop=1;jettySize=auto;html=1;entryX=0;entryY=0.5;entryDx=0;entryDy=0;exitX=0.5;exitY=1;exitDx=0;exitDy=0;" edge="1" parent="1" source="-ybGdMk0P6drD3uHrzyD-9" target="ta_ptb-M6hE-9gp1Du4E-191">
          <mxGeometry relative="1" as="geometry" />
        </mxCell>
        <mxCell id="-ybGdMk0P6drD3uHrzyD-9" value="&lt;span style=&quot;font-weight: normal;&quot;&gt;YC&lt;/span&gt;&lt;div&gt;&amp;nbsp; &lt;span style=&quot;font-weight: normal;&quot;&gt;put()&lt;/span&gt;&amp;nbsp;&lt;/div&gt;" style="whiteSpace=wrap;html=1;aspect=fixed;fillColor=#6a00ff;fontColor=#ffffff;strokeColor=#3700CC;fontStyle=1" vertex="1" parent="1">
          <mxGeometry x="1390" y="652" width="80" height="80" as="geometry" />
        </mxCell>
        <mxCell id="i-rnj0Xy2W10ClSQeITl-12" style="edgeStyle=orthogonalEdgeStyle;rounded=0;orthogonalLoop=1;jettySize=auto;html=1;exitX=0;exitY=0.5;exitDx=0;exitDy=0;" edge="1" parent="1" source="i-rnj0Xy2W10ClSQeITl-1" target="i-rnj0Xy2W10ClSQeITl-3">
          <mxGeometry relative="1" as="geometry" />
        </mxCell>
        <mxCell id="i-rnj0Xy2W10ClSQeITl-1" value="Release YC1" style="whiteSpace=wrap;html=1;aspect=fixed;fillColor=#e1d5e7;dashed=1;strokeColor=#9673a6;" vertex="1" parent="1">
          <mxGeometry x="1915.3799999999997" y="643" width="60" height="60" as="geometry" />
        </mxCell>
        <mxCell id="i-rnj0Xy2W10ClSQeITl-13" value="" style="edgeStyle=orthogonalEdgeStyle;rounded=0;orthogonalLoop=1;jettySize=auto;html=1;" edge="1" parent="1" source="i-rnj0Xy2W10ClSQeITl-3" target="ta_ptb-M6hE-9gp1Du4E-159">
          <mxGeometry relative="1" as="geometry" />
        </mxCell>
        <mxCell id="i-rnj0Xy2W10ClSQeITl-3" value="&lt;span style=&quot;text-align: left;&quot;&gt;&amp;nbsp;YC&lt;/span&gt;&lt;span style=&quot;text-align: left; background-color: initial;&quot;&gt;1 Pool&amp;nbsp;&lt;/span&gt;&lt;span style=&quot;text-align: left; background-color: initial;&quot;&gt;IDLE&lt;/span&gt;" style="sketch=0;outlineConnect=0;strokeColor=#9673a6;fillColor=#e1d5e7;dashed=0;verticalLabelPosition=top;verticalAlign=bottom;align=center;html=1;fontSize=12;fontStyle=0;aspect=fixed;shape=mxgraph.aws4.resourceIcon;resIcon=mxgraph.aws4.queue;labelPosition=center;" vertex="1" parent="1">
          <mxGeometry x="1800.6299999999997" y="643" width="60" height="60" as="geometry" />
        </mxCell>
        <mxCell id="i-rnj0Xy2W10ClSQeITl-14" value="&lt;font color=&quot;#ffb570&quot;&gt;YC1 Idle&lt;/font&gt;" style="edgeLabel;html=1;align=center;verticalAlign=middle;resizable=0;points=[];" connectable="0" vertex="1" parent="1">
          <mxGeometry x="2010.0000000000002" y="660.5" as="geometry">
            <mxPoint x="4" y="4" as="offset" />
          </mxGeometry>
        </mxCell>
      </root>
    </mxGraphModel>
  </diagram>
</mxfile>
